<?xml version="1.0" encoding="UTF-8"?> <!-- Generator: Adobe Illustrator 24.1.0, SVG Export Plug-In . SVG Version: 6.00 Build 0) --> <svg xmlns="http://www.w3.org/2000/svg" xmlns:xlink="http://www.w3.org/1999/xlink" version="1.1" id="Capa_1" x="0px" y="0px" viewBox="0 0 978.3 317.1" style="enable-background:new 0 0 978.3 317.1;" xml:space="preserve"> <style type="text/css"> .st0{fill:#636569;} .st1{fill-rule:evenodd;clip-rule:evenodd;fill:#00ABC8;} </style> <g> <path class="st0" d="M122.6,307.2h-15.5v-85.4c0-19.2-13.1-30.7-35-30.7c-29.3,0-53.2,25.9-53.2,57.7v58.4h-11V192.3H3.6v-11h15.3 v28.7c3.9-6.1,8.7-11.5,14.4-16.1c11.2-9.1,24.7-13.9,38.8-13.9c13.6,0,25.1,3.8,33.2,11c8.4,7.4,12.8,18.1,12.8,30.8v74.4h4.5 V307.2z"></path> <path class="st0" d="M195.5,308.2c-35.2,0-63.9-28.7-63.9-63.9c0-17,6.7-33.1,18.8-45.3c12.2-12.2,28.2-18.9,45.1-18.9 c21.1,0,41,10.6,53.3,28.4l3,4.3l-4.2,2.9c-1.8,1.5-3.9,3.3-6.3,5.4c-12.7,11-31.8,27.6-51.6,27.6h-46.9 c2.2,27.3,25,48.8,52.8,48.8c14.7,0,28.5-6.1,38.7-17l2.7-2.9l9.1,6.8l-3.3,3.6C230.5,300.8,213.4,308.2,195.5,308.2z M143,237.6 h47c15.7,0,33.2-15.1,44.8-25.1c0.7-0.6,1.4-1.2,2-1.8c-10.1-12.4-25.2-19.7-41.2-19.7C168.5,191.1,146.2,211.2,143,237.6z"></path> <path class="st0" d="M310.4,308.2c-13.6,0-25.1-3.7-33.3-10.8c-8.5-7.4-13-18-13-30.6v-74.4h-4.3v-11h15.3v85.4 c0,19.2,13.2,30.7,35.3,30.7c29.2,0,52.9-25.9,52.9-57.7v-58.4h11v114.8h4.5v11h-15.5v-28.9c-3.9,6.1-8.7,11.5-14.3,16 C337.9,303.4,324.5,308.2,310.4,308.2z"></path> <path class="st0" d="M407.6,307.2h-11V192.3h-4.3v-11h15.3v32.1c3.8-6.8,8.6-12.9,14.1-18.1c10.2-9.7,22-15.2,32.2-15.2h5.6v16.6 h-11v-4.9c-17.9,4.5-41,29.3-41,63.6V307.2z"></path> <path class="st0" d="M521.1,308.2c-17.2,0-33.2-6.6-45.3-18.7c-12-12-18.6-28.1-18.6-45.3c0-17.2,6.6-33.3,18.6-45.4 c12.1-12.1,28.1-18.8,45.3-18.8c35.4,0,64.2,28.8,64.2,64.2c0,17.1-6.7,33.2-18.8,45.3C554.4,301.6,538.3,308.2,521.1,308.2z M521.1,191.1c-29.2,0-52.9,23.9-52.9,53.2c0,29.3,23.7,53.2,52.9,53.2c29.3,0,53.2-23.9,53.2-53.2 C574.3,214.9,550.4,191.1,521.1,191.1z"></path> <path class="st0" d="M715.5,307.2H700v-85.4c0-19.2-13.1-30.7-35-30.7c-29.3,0-53.2,25.9-53.2,57.7v58.4h-11V192.3h-4.3v-11h15.3 v28.7c3.9-6.1,8.7-11.5,14.4-16.1c11.3-9.1,24.7-13.9,38.8-13.9c13.6,0,25,3.8,33.2,11c8.4,7.4,12.8,18.1,12.8,30.8v74.4h4.6V307.2 z"></path> <g> <path class="st1" d="M823.3,170.5h-2.5v23.2h3c9.7,0,20.2-1.5,20.2-11.8C844,171.7,832.7,170.5,823.3,170.5z"></path> <path class="st1" d="M957.7,248c-22.5-13-36,7.6-65.6-9.4c-15.5-8.9-26.8-22.2-24.3-41.6c1-13.6-1.8-27.5-8-39.5 c-15.7-30.7-4.7-52.1,3.9-67c17.7-30.7,34.4-23,48-46.5c7.4-12.8,3-29.2-9.8-36.6C889.1,0,873.1,4.2,865.7,17 c-13.6,23.5,1.5,34.1-16.3,64.8c-8.6,15-21.7,34.5-56.1,36.2c-17.3,0.4-34.1,6.9-47.3,18.7c-29.5,18.8-27.1-20.1-46-31 c-12.8-7.4-29.2-3-36.6,9.8c-7.4,12.8-3,29.2,9.8,36.6c18.9,10.9,52.3-10.2,49.8,24.2c-6.3,30.2,6.9,62.2,35.1,78.4 c24.4,14.1,53.6,12.5,75.9-1.6c16.8-11.8,34.2-9.2,49.7-0.3c29.5,17.1,18.5,39,41,52c15.7,9.1,35.8,3.6,44.9-12.1 C978.8,277,973.4,257.1,957.7,248z M803.1,204.2c0,14.3-10.4,25.2-27.9,25.2c-17.5,0-27.9-10.9-27.9-25.2v-41h9.5v38.2 c0,10.5,3.8,20.4,18.4,20.4c14.7,0,18.4-9.8,18.4-20.4v-38.2h9.5V204.2z M826.2,200.9h-5.5V228h-9.5v-64.8h10.9 c23.4,0,30.7,6.9,30.7,18.7C852.9,195.7,840.7,200.9,826.2,200.9z"></path> </g> </g> </svg> 